# xmcd CD database file
#
# Track frame offsets:
#	187
#	21555
#	43057
#
# Disc length: 856 seconds
#
# Revision: 0
# Processed by: cddbd v1.5.1PL2 Copyright (c) Steve Scherf et al.
# Submitted via: CDex 1.51
#
DISCID=23035603
DTITLE=藤川賢一 - マネキン〜日本テレビ・読売テレビ系全国ネット「ダウンタウンＤＸ」エンディングテーマ〜
DYEAR=1994
DGENRE=J-POP
TTITLE0=マネキン
TTITLE1=Ｉ’ｍ　ａ　ｌｏｓｅｒ
TTITLE2=マネキン（オリジナルカラオケ）
EXTD=YEAR: 1994/7/6
EXTT0=
EXTT1=
EXTT2=
PLAYORDER=
